<svg width="330" height="63" viewBox="0 0 330 63" fill="none" xmlns="http://www.w3.org/2000/svg">
<g filter="url(#filter0_d_113_277)">
<rect x="4" width="72.7941" height="36.3971" fill="#7D99FF" fill-opacity="0.89"/>
<rect x="22.6029" y="18.6029" width="72.7941" height="36.3971" fill="#FF6969" fill-opacity="0.82"/>
<line x1="9.66174" y1="9.30146" x2="54.147" y2="9.30146" stroke="white" stroke-width="0.808824"/>
<line x1="25.8383" y1="27.9044" x2="72.75" y2="27.9044" stroke="white" stroke-width="0.808824"/>
</g>
<path d="M61.92 53.4C59.9467 53.4 58.1733 52.92 56.6 51.96C55.0267 51 53.7867 49.6933 52.88 48.04C51.9733 46.3867 51.52 44.52 51.52 42.44C51.52 40.36 51.9733 38.4933 52.88 36.84C53.7867 35.1867 55.0267 33.88 56.6 32.92C58.1733 31.96 59.9467 31.48 61.92 31.48C63.8133 31.48 65.5333 31.84 67.08 32.56C68.6267 33.28 69.8267 34.28 70.68 35.56L67.96 38.84C67.56 38.28 67.0533 37.7733 66.44 37.32C65.8267 36.8667 65.1733 36.5067 64.48 36.24C63.7867 35.9733 63.0933 35.84 62.4 35.84C61.2267 35.84 60.1733 36.1333 59.24 36.72C58.3333 37.28 57.6133 38.0667 57.08 39.08C56.5467 40.0667 56.28 41.1867 56.28 42.44C56.28 43.6933 56.5467 44.8133 57.08 45.8C57.64 46.7867 58.3867 47.5733 59.32 48.16C60.2533 48.7467 61.2933 49.04 62.44 49.04C63.1333 49.04 63.8 48.9333 64.44 48.72C65.1067 48.48 65.7333 48.1467 66.32 47.72C66.9067 47.2933 67.4533 46.76 67.96 46.12L70.68 49.44C69.7733 50.6133 68.52 51.5733 66.92 52.32C65.3467 53.04 63.68 53.4 61.92 53.4ZM81.7625 53.4C80.2425 53.4 78.9225 53.0667 77.8025 52.4C76.6825 51.7067 75.8292 50.7333 75.2425 49.48C74.6558 48.2 74.3625 46.68 74.3625 44.92V31.92H79.2825V43.88C79.2825 45 79.4558 45.96 79.8025 46.76C80.1492 47.5333 80.6558 48.1333 81.3225 48.56C81.9892 48.9867 82.7892 49.2 83.7225 49.2C84.4158 49.2 85.0425 49.0933 85.6025 48.88C86.1892 48.64 86.6958 48.32 87.1225 47.92C87.5492 47.4933 87.8825 47 88.1225 46.44C88.3625 45.8533 88.4825 45.2267 88.4825 44.56V31.92H93.4025V53H88.6025L88.5225 48.6L89.4025 48.12C89.0825 49.1333 88.5358 50.04 87.7625 50.84C87.0158 51.6133 86.1225 52.24 85.0825 52.72C84.0425 53.1733 82.9358 53.4 81.7625 53.4ZM108.929 53.4C107.302 53.4 105.809 53.2 104.449 52.8C103.089 52.3733 101.862 51.7467 100.769 50.92C99.6757 50.0933 98.7024 49.0933 97.8491 47.92L101.249 44.08C102.556 45.8933 103.836 47.1467 105.089 47.84C106.342 48.5333 107.756 48.88 109.329 48.88C110.236 48.88 111.062 48.7467 111.809 48.48C112.556 48.1867 113.142 47.8 113.569 47.32C113.996 46.8133 114.209 46.24 114.209 45.6C114.209 45.1467 114.116 44.7333 113.929 44.36C113.769 43.96 113.516 43.6133 113.169 43.32C112.822 43 112.396 42.7067 111.889 42.44C111.382 42.1733 110.809 41.9467 110.169 41.76C109.529 41.5733 108.822 41.4 108.049 41.24C106.582 40.9467 105.302 40.56 104.209 40.08C103.116 39.5733 102.196 38.96 101.449 38.24C100.702 37.4933 100.156 36.6667 99.8091 35.76C99.4624 34.8267 99.2891 33.7733 99.2891 32.6C99.2891 31.4267 99.5424 30.3467 100.049 29.36C100.582 28.3733 101.302 27.52 102.209 26.8C103.116 26.08 104.169 25.52 105.369 25.12C106.569 24.72 107.862 24.52 109.249 24.52C110.822 24.52 112.222 24.7067 113.449 25.08C114.702 25.4533 115.796 26.0133 116.729 26.76C117.689 27.48 118.476 28.36 119.089 29.4L115.649 32.8C115.116 31.9733 114.516 31.2933 113.849 30.76C113.182 30.2 112.462 29.7867 111.689 29.52C110.916 29.2267 110.102 29.08 109.249 29.08C108.289 29.08 107.449 29.2133 106.729 29.48C106.036 29.7467 105.489 30.1333 105.089 30.64C104.689 31.12 104.489 31.7067 104.489 32.4C104.489 32.9333 104.609 33.4133 104.849 33.84C105.089 34.24 105.422 34.6 105.849 34.92C106.302 35.24 106.876 35.52 107.569 35.76C108.262 36 109.049 36.2133 109.929 36.4C111.396 36.6933 112.716 37.0933 113.889 37.6C115.062 38.08 116.062 38.6667 116.889 39.36C117.716 40.0267 118.342 40.8 118.769 41.68C119.196 42.5333 119.409 43.4933 119.409 44.56C119.409 46.4 118.969 47.9867 118.089 49.32C117.236 50.6267 116.022 51.64 114.449 52.36C112.876 53.0533 111.036 53.4 108.929 53.4ZM133.287 53.4C131.314 53.4 129.541 52.92 127.967 51.96C126.394 51 125.154 49.6933 124.247 48.04C123.341 46.3867 122.887 44.52 122.887 42.44C122.887 40.36 123.341 38.4933 124.247 36.84C125.154 35.1867 126.394 33.88 127.967 32.92C129.541 31.96 131.314 31.48 133.287 31.48C135.181 31.48 136.901 31.84 138.447 32.56C139.994 33.28 141.194 34.28 142.047 35.56L139.327 38.84C138.927 38.28 138.421 37.7733 137.807 37.32C137.194 36.8667 136.541 36.5067 135.847 36.24C135.154 35.9733 134.461 35.84 133.767 35.84C132.594 35.84 131.541 36.1333 130.607 36.72C129.701 37.28 128.981 38.0667 128.447 39.08C127.914 40.0667 127.647 41.1867 127.647 42.44C127.647 43.6933 127.914 44.8133 128.447 45.8C129.007 46.7867 129.754 47.5733 130.687 48.16C131.621 48.7467 132.661 49.04 133.807 49.04C134.501 49.04 135.167 48.9333 135.807 48.72C136.474 48.48 137.101 48.1467 137.687 47.72C138.274 47.2933 138.821 46.76 139.327 46.12L142.047 49.44C141.141 50.6133 139.887 51.5733 138.287 52.32C136.714 53.04 135.047 53.4 133.287 53.4ZM145.81 53V23.4H150.69V36.24L149.77 36.72C150.036 35.76 150.556 34.8933 151.33 34.12C152.103 33.32 153.023 32.68 154.09 32.2C155.156 31.72 156.25 31.48 157.37 31.48C158.97 31.48 160.303 31.8 161.37 32.44C162.463 33.08 163.276 34.04 163.81 35.32C164.37 36.6 164.65 38.2 164.65 40.12V53H159.73V40.48C159.73 39.4133 159.583 38.5333 159.29 37.84C158.996 37.12 158.543 36.6 157.93 36.28C157.316 35.9333 156.57 35.7733 155.69 35.8C154.97 35.8 154.303 35.92 153.69 36.16C153.103 36.3733 152.583 36.6933 152.13 37.12C151.703 37.52 151.356 37.9867 151.09 38.52C150.85 39.0533 150.73 39.64 150.73 40.28V53H148.29C147.81 53 147.356 53 146.93 53C146.53 53 146.156 53 145.81 53ZM180.065 53.4C177.851 53.4 175.891 52.9333 174.185 52C172.505 51.0667 171.185 49.8 170.225 48.2C169.291 46.5733 168.825 44.72 168.825 42.64C168.825 40.9867 169.091 39.48 169.625 38.12C170.158 36.76 170.891 35.5867 171.825 34.6C172.785 33.5867 173.918 32.8133 175.225 32.28C176.558 31.72 178.011 31.44 179.585 31.44C180.971 31.44 182.265 31.7067 183.465 32.24C184.665 32.7733 185.705 33.5067 186.585 34.44C187.465 35.3467 188.131 36.44 188.585 37.72C189.065 38.9733 189.291 40.3467 189.265 41.84L189.225 43.56H172.145L171.225 40.2H185.105L184.465 40.88V40C184.385 39.1733 184.118 38.4533 183.665 37.84C183.211 37.2 182.625 36.7067 181.905 36.36C181.211 35.9867 180.438 35.8 179.585 35.8C178.278 35.8 177.171 36.0533 176.265 36.56C175.385 37.0667 174.718 37.8 174.265 38.76C173.811 39.6933 173.585 40.8667 173.585 42.28C173.585 43.64 173.865 44.8267 174.425 45.84C175.011 46.8533 175.825 47.64 176.865 48.2C177.931 48.7333 179.171 49 180.585 49C181.571 49 182.478 48.84 183.305 48.52C184.131 48.2 185.025 47.6267 185.985 46.8L188.425 50.2C187.705 50.8667 186.878 51.44 185.945 51.92C185.038 52.3733 184.078 52.7333 183.065 53C182.051 53.2667 181.051 53.4 180.065 53.4ZM202.102 53.4C200.236 53.4 198.556 52.9333 197.062 52C195.596 51.04 194.422 49.7467 193.542 48.12C192.689 46.4667 192.262 44.5733 192.262 42.44C192.262 40.3333 192.689 38.4533 193.542 36.8C194.396 35.1467 195.556 33.8533 197.022 32.92C198.516 31.96 200.196 31.48 202.062 31.48C203.076 31.48 204.049 31.64 204.982 31.96C205.942 32.28 206.796 32.72 207.542 33.28C208.289 33.8133 208.876 34.4133 209.302 35.08C209.756 35.7467 210.009 36.44 210.062 37.16L208.742 37.32V23.4H213.662V53H208.902L208.782 48.04L209.742 48.12C209.716 48.7867 209.476 49.4267 209.022 50.04C208.596 50.6533 208.036 51.2133 207.342 51.72C206.649 52.2267 205.836 52.64 204.902 52.96C203.996 53.2533 203.062 53.4 202.102 53.4ZM203.062 49.24C204.209 49.24 205.222 48.9467 206.102 48.36C206.982 47.7733 207.662 46.9733 208.142 45.96C208.649 44.9467 208.902 43.7733 208.902 42.44C208.902 41.1333 208.649 39.9733 208.142 38.96C207.662 37.92 206.982 37.12 206.102 36.56C205.222 35.9733 204.209 35.68 203.062 35.68C201.916 35.68 200.902 35.9733 200.022 36.56C199.142 37.12 198.449 37.92 197.942 38.96C197.462 39.9733 197.222 41.1333 197.222 42.44C197.222 43.7733 197.462 44.9467 197.942 45.96C198.449 46.9733 199.142 47.7733 200.022 48.36C200.902 48.9467 201.916 49.24 203.062 49.24ZM227.192 53.4C225.672 53.4 224.352 53.0667 223.232 52.4C222.112 51.7067 221.259 50.7333 220.672 49.48C220.086 48.2 219.792 46.68 219.792 44.92V31.92H224.712V43.88C224.712 45 224.886 45.96 225.232 46.76C225.579 47.5333 226.086 48.1333 226.752 48.56C227.419 48.9867 228.219 49.2 229.152 49.2C229.846 49.2 230.472 49.0933 231.032 48.88C231.619 48.64 232.126 48.32 232.552 47.92C232.979 47.4933 233.312 47 233.552 46.44C233.792 45.8533 233.912 45.2267 233.912 44.56V31.92H238.832V53H234.032L233.952 48.6L234.832 48.12C234.512 49.1333 233.966 50.04 233.192 50.84C232.446 51.6133 231.552 52.24 230.512 52.72C229.472 53.1733 228.366 53.4 227.192 53.4ZM244.639 53V23.4H249.599V53H244.639ZM255.94 53V31.92H260.86V53H255.94ZM258.34 27.44C257.353 27.44 256.58 27.2 256.02 26.72C255.487 26.2133 255.22 25.5067 255.22 24.6C255.22 23.7467 255.5 23.0533 256.06 22.52C256.62 21.9867 257.38 21.72 258.34 21.72C259.353 21.72 260.127 21.9733 260.66 22.48C261.22 22.96 261.5 23.6667 261.5 24.6C261.5 25.4267 261.22 26.1067 260.66 26.64C260.1 27.1733 259.327 27.44 258.34 27.44ZM267.099 53V31.92H271.899L271.979 36.24L271.059 36.72C271.325 35.76 271.845 34.8933 272.619 34.12C273.392 33.32 274.312 32.68 275.379 32.2C276.445 31.72 277.539 31.48 278.659 31.48C280.259 31.48 281.592 31.8 282.659 32.44C283.752 33.08 284.565 34.04 285.099 35.32C285.659 36.6 285.939 38.2 285.939 40.12V53H281.019V40.48C281.019 39.4133 280.872 38.5333 280.579 37.84C280.285 37.12 279.832 36.6 279.219 36.28C278.605 35.9333 277.859 35.7733 276.979 35.8C276.259 35.8 275.592 35.92 274.979 36.16C274.392 36.3733 273.872 36.6933 273.419 37.12C272.992 37.52 272.645 37.9867 272.379 38.52C272.139 39.0533 272.019 39.64 272.019 40.28V53H269.579C269.099 53 268.645 53 268.219 53C267.819 53 267.445 53 267.099 53ZM300.954 62.2C299.38 62.2 297.807 61.96 296.234 61.48C294.687 61 293.434 60.3733 292.474 59.6L294.234 55.96C294.794 56.36 295.42 56.7067 296.114 57C296.807 57.2933 297.54 57.52 298.314 57.68C299.114 57.84 299.9 57.92 300.674 57.92C302.087 57.92 303.26 57.6933 304.194 57.24C305.154 56.8133 305.874 56.1467 306.354 55.24C306.834 54.36 307.074 53.2533 307.074 51.92V48.04L307.794 48.32C307.634 49.1467 307.194 49.9333 306.474 50.68C305.754 51.4267 304.847 52.04 303.754 52.52C302.66 52.9733 301.54 53.2 300.394 53.2C298.394 53.2 296.62 52.7333 295.074 51.8C293.554 50.8667 292.34 49.6 291.434 48C290.554 46.3733 290.114 44.5067 290.114 42.4C290.114 40.2933 290.554 38.4267 291.434 36.8C292.314 35.1467 293.514 33.8533 295.034 32.92C296.58 31.96 298.314 31.48 300.234 31.48C301.034 31.48 301.807 31.5733 302.554 31.76C303.3 31.9467 303.98 32.2133 304.594 32.56C305.234 32.9067 305.807 33.2933 306.314 33.72C306.82 34.1467 307.234 34.6 307.554 35.08C307.874 35.56 308.074 36.0267 308.154 36.48L307.114 36.8L307.194 31.92H312.034V51.56C312.034 53.2667 311.78 54.7733 311.274 56.08C310.767 57.3867 310.034 58.4933 309.074 59.4C308.114 60.3333 306.954 61.0267 305.594 61.48C304.234 61.96 302.687 62.2 300.954 62.2ZM301.154 49C302.354 49 303.407 48.72 304.314 48.16C305.247 47.6 305.967 46.8267 306.474 45.84C306.98 44.8533 307.234 43.72 307.234 42.44C307.234 41.1333 306.967 39.9867 306.434 39C305.927 37.9867 305.22 37.2 304.314 36.64C303.407 36.08 302.354 35.8 301.154 35.8C299.954 35.8 298.9 36.0933 297.994 36.68C297.087 37.24 296.367 38.0267 295.834 39.04C295.327 40.0267 295.074 41.16 295.074 42.44C295.074 43.6933 295.327 44.8267 295.834 45.84C296.367 46.8267 297.087 47.6 297.994 48.16C298.9 48.72 299.954 49 301.154 49Z" fill="black"/>
<defs>
<filter id="filter0_d_113_277" x="0" y="0" width="99.397" height="63" filterUnits="userSpaceOnUse" color-interpolation-filters="sRGB">
<feFlood flood-opacity="0" result="BackgroundImageFix"/>
<feColorMatrix in="SourceAlpha" type="matrix" values="0 0 0 0 0 0 0 0 0 0 0 0 0 0 0 0 0 0 127 0" result="hardAlpha"/>
<feOffset dy="4"/>
<feGaussianBlur stdDeviation="2"/>
<feComposite in2="hardAlpha" operator="out"/>
<feColorMatrix type="matrix" values="0 0 0 0 0 0 0 0 0 0 0 0 0 0 0 0 0 0 0.25 0"/>
<feBlend mode="normal" in2="BackgroundImageFix" result="effect1_dropShadow_113_277"/>
<feBlend mode="normal" in="SourceGraphic" in2="effect1_dropShadow_113_277" result="shape"/>
</filter>
</defs>
</svg>
